<svg id="visual" viewBox="0 0 900 600" width="900" height="600" xmlns="http://www.w3.org/2000/svg" xmlns:xlink="http://www.w3.org/1999/xlink" version="1.1"><rect x="0" y="0" width="900" height="600" fill="#161625"></rect><path d="M0 454L13.7 457.7C27.3 461.3 54.7 468.7 82 473.2C109.3 477.7 136.7 479.3 163.8 467.8C191 456.3 218 431.7 245.2 424C272.3 416.3 299.7 425.7 327 436.5C354.3 447.3 381.7 459.7 409 465.8C436.3 472 463.7 472 491 475.8C518.3 479.7 545.7 487.3 573 482.2C600.3 477 627.7 459 654.8 459.2C682 459.3 709 477.7 736.2 481C763.3 484.3 790.7 472.7 818 459.2C845.3 445.7 872.7 430.3 886.3 422.7L900 415L900 601L886.3 601C872.7 601 845.3 601 818 601C790.7 601 763.3 601 736.2 601C709 601 682 601 654.8 601C627.7 601 600.3 601 573 601C545.7 601 518.3 601 491 601C463.7 601 436.3 601 409 601C381.7 601 354.3 601 327 601C299.7 601 272.3 601 245.2 601C218 601 191 601 163.8 601C136.7 601 109.3 601 82 601C54.7 601 27.3 601 13.7 601L0 601Z" fill="#01615e"></path><path d="M0 512L13.7 504C27.3 496 54.7 480 82 481.2C109.3 482.3 136.7 500.7 163.8 510.3C191 520 218 521 245.2 517.7C272.3 514.3 299.7 506.7 327 504.8C354.3 503 381.7 507 409 503.8C436.3 500.7 463.7 490.3 491 482.5C518.3 474.7 545.7 469.3 573 473.7C600.3 478 627.7 492 654.8 503.5C682 515 709 524 736.2 526.3C763.3 528.7 790.7 524.3 818 519.5C845.3 514.7 872.7 509.3 886.3 506.7L900 504L900 601L886.3 601C872.7 601 845.3 601 818 601C790.7 601 763.3 601 736.2 601C709 601 682 601 654.8 601C627.7 601 600.3 601 573 601C545.7 601 518.3 601 491 601C463.7 601 436.3 601 409 601C381.7 601 354.3 601 327 601C299.7 601 272.3 601 245.2 601C218 601 191 601 163.8 601C136.7 601 109.3 601 82 601C54.7 601 27.3 601 13.7 601L0 601Z" fill="#12817e"></path><path d="M0 541L13.7 538.7C27.3 536.3 54.7 531.7 82 530.2C109.3 528.7 136.7 530.3 163.8 536C191 541.7 218 551.3 245.2 549.3C272.3 547.3 299.7 533.7 327 529.3C354.3 525 381.7 530 409 531.7C436.3 533.3 463.7 531.7 491 533.7C518.3 535.7 545.7 541.3 573 539.8C600.3 538.3 627.7 529.7 654.8 528.7C682 527.7 709 534.3 736.2 539C763.3 543.7 790.7 546.3 818 541.2C845.3 536 872.7 523 886.3 516.5L900 510L900 601L886.3 601C872.7 601 845.3 601 818 601C790.7 601 763.3 601 736.2 601C709 601 682 601 654.8 601C627.7 601 600.3 601 573 601C545.7 601 518.3 601 491 601C463.7 601 436.3 601 409 601C381.7 601 354.3 601 327 601C299.7 601 272.3 601 245.2 601C218 601 191 601 163.8 601C136.7 601 109.3 601 82 601C54.7 601 27.3 601 13.7 601L0 601Z" fill="#22a39f"></path></svg>